<svg width="1865" height="190" viewBox="0 0 1865 190" fill="none" xmlns="http://www.w3.org/2000/svg">
<g clip-path="url(#clip0_78_3555)">
<path d="M1124.21 77.0391C1124.21 77.0391 1127.21 124.539 1067.71 124.539C1008.21 124.539 1011.21 77.0391 1011.21 77.0391C1011.21 77.0391 1037.01 89.5391 1068.21 89.5391C1099.41 89.5391 1124.21 77.0391 1124.21 77.0391Z" stroke="#FFC5DB" stroke-width="4" stroke-miterlimit="10"/>
<path d="M1104.71 54.8203C1120.32 62.0703 1122.36 73.2703 1124.21 75.5303" stroke="#FFC5DB" stroke-width="4" stroke-miterlimit="10"/>
<path d="M1011.2 74.5508C1011.2 74.5508 1011.21 74.5408 1011.21 74.5308C1011.5 73.4308 1018.39 52.6008 1057.41 49.0508" stroke="#FFC5DB" stroke-width="4" stroke-miterlimit="10"/>
<path d="M1095.11 51.4199C1094.45 51.2499 1093.78 51.0799 1093.09 50.9199" stroke="#FFC5DB" stroke-width="4" stroke-miterlimit="10"/>
<path d="M1011.19 74.5793H1011.2C1011.2 74.5793 1011.19 74.5593 1011.2 74.5493C1011.2 74.5393 1011.21 74.5393 1011.21 74.5293" stroke="#FFC5DB" stroke-width="4" stroke-miterlimit="10"/>
<path d="M1043.21 121.539C1041.2 127.579 1042.07 131.299 1043.21 133.539C1050.06 147.019 1086.77 146.319 1093.21 132.539C1094.3 130.209 1094.89 126.739 1093.21 121.539" stroke="#FFC5DB" stroke-width="4" stroke-miterlimit="10"/>
<path d="M1099.21 84.5409C1094.76 74.4809 1084.99 67.8409 1074.21 67.5409C1062.51 67.2109 1051.66 75.4109 1047.21 86.5409" stroke="#FFC5DB" stroke-width="4" stroke-miterlimit="10"/>
<path d="M1032.21 76.5294C1033.06 73.3794 1034.69 70.5994 1036.85 68.4094C1039.38 65.8594 1042.63 64.1094 1046.21 63.5294C1048.5 63.1594 1050.69 63.3994 1052.67 63.9494" stroke="#FFC5DB" stroke-width="4" stroke-miterlimit="10"/>
<path d="M1025.21 83.5399C1025.47 82.9499 1028.22 76.9699 1037.21 75.5399C1045.79 74.1799 1051.66 79.9799 1052.21 80.5399" stroke="#FFC5DB" stroke-width="4" stroke-miterlimit="10"/>
<path d="M1119.21 77.5407C1118.55 76.2507 1114.19 67.2007 1104.21 65.5407C1098.21 64.5407 1092.21 64.5407 1084.21 70.5407" stroke="#FFC5DB" stroke-width="4" stroke-miterlimit="10"/>
<path d="M1091.21 86.5407C1090.86 85.9507 1085.2 75.8107 1074.21 75.5407C1066.88 75.3607 1059.21 79.5407 1055.21 88.5407" stroke="#FFC5DB" stroke-width="4" stroke-miterlimit="10"/>
<path d="M1081.21 88.5391C1080.91 88.1391 1078.21 83.5391 1072.21 83.5391C1070.21 83.5391 1065.21 84.5391 1064.21 89.5391" stroke="#FFC5DB" stroke-width="4" stroke-miterlimit="10"/>
<path d="M1055.21 74.54C1053.97 72.43 1051.21 69.54 1047.21 70.54C1044.99 71.09 1043 72.37 1042.21 74.54" stroke="#FFC5DB" stroke-width="4" stroke-miterlimit="10"/>
<path d="M1111.21 80.5401C1110.92 79.8801 1108.7 75.0601 1103.21 73.5401C1098.72 72.3001 1094.05 74.1001 1093.21 74.5401" stroke="#FFC5DB" stroke-width="4" stroke-miterlimit="10"/>
<path d="M1017.21 77.5399C1017.98 76.0399 1020.3 72.0199 1025.21 69.5399C1031.71 66.2599 1035.92 68.1199 1037.21 68.5399" stroke="#FFC5DB" stroke-width="4" stroke-miterlimit="10"/>
<path d="M1052.72 64.4592C1052.7 64.2892 1052.68 64.1192 1052.67 63.9492" stroke="#FFC5DB" stroke-width="4" stroke-miterlimit="10"/>
<path d="M1097.21 64.5302C1097.21 62.8002 1096.85 60.3502 1096.03 57.6602" stroke="#FFC5DB" stroke-width="4" stroke-miterlimit="10"/>
<path d="M1093.68 51.9693L1084.69 55.4293C1083.85 54.2293 1082.85 53.2093 1081.67 52.3993C1079.87 51.1693 1077.63 50.4493 1074.81 50.4493C1074.3 50.4493 1073.76 50.4793 1073.21 50.5293C1064.25 51.3493 1062.21 60.5293 1062.21 69.5293C1061.76 69.0893 1057.95 65.3993 1052.67 63.9493C1052.34 59.4193 1054.14 53.3493 1057.41 49.0493C1060.67 44.7393 1065.87 41.3393 1073.21 40.5293C1078.12 39.9793 1082.13 40.9993 1085.38 42.8993C1087.24 43.9993 1088.85 45.3893 1090.22 46.9393C1091.32 48.1793 1092.27 49.5293 1093.09 50.9193C1093.29 51.2593 1093.49 51.6093 1093.68 51.9693Z" stroke="#FFC5DB" stroke-width="4" stroke-miterlimit="10"/>
<path d="M1087.27 60.5293C1088.06 62.6993 1088.66 65.0593 1089.18 67.4093L1089.21 67.5293" stroke="#FFC5DB" stroke-width="4" stroke-miterlimit="10"/>
<path d="M1155.23 38.2891L1104.71 54.8191L1096.03 57.6591L1087.27 60.5291L1073.41 65.0591L1071.35 60.5791L1084.69 55.4291L1093.68 51.9691L1095.11 51.4191L1150.98 29.8691L1155.23 38.2891Z" stroke="#FFC5DB" stroke-width="4" stroke-miterlimit="10"/>
<path d="M1081.67 52.3992L1071.17 59.1092L1068.05 55.2792L1074.81 50.4492C1077.63 50.4492 1079.87 51.1692 1081.67 52.3992Z" stroke="#FFC5DB" stroke-width="4" stroke-miterlimit="10"/>
<path d="M1143.72 12.7699L1090.22 46.9399C1088.85 45.3899 1087.24 43.9999 1085.38 42.8999L1137.51 5.66992L1143.72 12.7699Z" stroke="#FFC5DB" stroke-width="4" stroke-miterlimit="10"/>
<path d="M28.2096 114.539L67.2096 108.539C67.2096 108.539 62.8796 89.1991 68.2096 83.5391C70.5196 81.0891 79.2096 76.5391 77.2096 66.5391C76.2096 61.5591 68.2096 59.5391 66.2096 55.5391C63.2096 49.5391 69.5796 36.9391 66.2096 31.5391C61.2096 23.5391 55.0596 34.4891 46.2096 31.5391C43.2096 30.5391 40.2696 13.5391 32.2096 13.5391C20.2096 13.5391 24.2096 32.5391 21.2096 34.5391C13.5996 39.6091 7.20955 31.5391 4.20955 41.5391C1.20955 51.5391 15.2096 57.5391 14.2096 64.5391C13.0896 72.3691 0.209554 68.5391 2.20955 80.5391C3.08955 85.8091 17.2096 91.5391 19.2096 94.5391C25.0296 103.269 28.2096 114.539 28.2096 114.539Z" stroke="#FFC5DB" stroke-width="4" stroke-miterlimit="10"/>
<path d="M37.3896 50.5391L47.2096 103.539" stroke="#FFC5DB" stroke-width="4" stroke-miterlimit="10"/>
<path d="M52.21 55.5391L40.74 68.5891L24.21 59.5391" stroke="#FFC5DB" stroke-width="4" stroke-miterlimit="10"/>
<path d="M57.21 72.5391L43.15 81.6291L27.21 80.5391" stroke="#FFC5DB" stroke-width="4" stroke-miterlimit="10"/>
<path d="M962.21 125.539C952.7 115.079 919.97 119.349 908.21 135.539C901.38 144.939 897.43 161.289 906.21 172.539C915.99 185.079 936.09 184.229 948.21 176.539C965.21 165.759 972.21 136.539 962.21 125.539Z" stroke="#FFC5DB" stroke-width="4" stroke-miterlimit="10"/>
<path d="M938.21 146.539C933.44 141.659 923.09 142.269 919.21 147.539C915.43 152.679 917.2 162.349 923.21 165.539C927.85 168.009 936.94 166.479 940.21 161.539C943.25 156.949 941.46 149.859 938.21 146.539Z" stroke="#FFC5DB" stroke-width="4" stroke-miterlimit="10"/>
<path d="M339.21 124.54C346.13 132.89 341.21 143.54 336.21 149.54C320.58 168.29 276.21 178.54 273.21 173.54C269.19 166.84 287.21 134.54 311.21 121.54C320.32 116.6 332.03 115.87 339.21 124.54Z" stroke="#FFC5DB" stroke-width="4" stroke-miterlimit="10"/>
<path d="M324.21 138.539L333.79 153.539" stroke="#FFC5DB" stroke-width="4" stroke-miterlimit="10"/>
<path d="M290.7 136.051L300.21 149.541" stroke="#FFC5DB" stroke-width="4" stroke-miterlimit="10"/>
<path d="M343.21 132.539C367.16 142.969 379.51 136.039 381.21 133.539C383.51 130.169 370.91 123.449 372.21 119.539C373.21 116.539 384.29 106.619 378.21 100.539C372.21 94.5391 360.43 104.849 355.21 103.539C351.21 102.539 357.49 83.5391 350.21 83.5391C341.21 83.5391 334.21 100.539 333.21 118.539" stroke="#FFC5DB" stroke-width="4" stroke-miterlimit="10"/>
<path d="M672.21 45.5391L675.21 61.5391L700.21 55.5391L697.21 38.5391" stroke="#FFC5DB" stroke-width="4" stroke-miterlimit="10"/>
<path d="M691.21 28.5398C690.74 28.7898 687.21 31.5398 688.21 35.5398C689.03 38.8298 694.59 40.1698 699.21 39.5398C704.76 38.7798 709.61 34.6698 710.21 29.5398C711.23 20.8698 700.03 12.4998 690.21 10.5398C677.53 8.00982 666.69 15.2698 664.21 17.5398C661.88 19.6798 653.16 29.5898 656.21 38.5398C657.82 43.2698 662.72 47.1998 668.21 47.5398C673.8 47.8798 679.04 44.5598 679.21 39.5398C679.36 34.9398 673.49 32.6898 673.21 32.5398" stroke="#FFC5DB" stroke-width="4" stroke-miterlimit="10"/>
<path d="M815.82 171.55C809.9 173.27 802.91 174.27 794.67 174.27C737.88 174.27 740.74 126.77 740.74 126.77C740.74 126.77 743.38 128.11 747.97 129.91C751.94 131.47 757.38 133.37 763.84 135.06C765.66 135.53 767.57 135.99 769.55 136.42C777.2 138.07 785.93 139.27 795.15 139.27C815.19 139.27 832.46 133.61 841.61 129.91C846.07 128.11 848.6 126.77 848.6 126.77C848.6 126.77 850.69 161.48 815.82 171.55Z" stroke="#FFC5DB" stroke-width="4" stroke-miterlimit="10"/>
<path d="M761.62 104.39C766.69 102.17 772.95 100.33 780.66 99.2695" stroke="#FFC5DB" stroke-width="4" stroke-miterlimit="10"/>
<path d="M787.22 98.5895C790.01 98.3795 792.97 98.2695 796.1 98.2695C842.87 98.2695 845.94 121.87 848.6 125.27" stroke="#FFC5DB" stroke-width="4" stroke-miterlimit="10"/>
<path d="M755.49 107.551C743.57 114.801 740.86 123.731 740.73 124.291" stroke="#FFC5DB" stroke-width="4" stroke-miterlimit="10"/>
<path d="M740.72 124.32H740.73C740.73 124.32 740.72 124.3 740.73 124.29C740.74 124.28 740.74 124.28 740.74 124.27" stroke="#FFC5DB" stroke-width="4" stroke-miterlimit="10"/>
<path d="M767.55 171.27C765.62 175.79 766.45 178.57 767.55 180.25C774.15 190.34 809.5 189.82 815.71 179.5C816.76 177.76 817.32 175.16 815.71 171.27" stroke="#FFC5DB" stroke-width="4" stroke-miterlimit="10"/>
<path d="M787.72 44.3496L787.22 98.5896L787.11 109.5L786.92 130.44L782.01 130.96L781.08 109.15L780.66 99.2696L778.38 45.6896L787.72 44.3496Z" stroke="#FFC5DB" stroke-width="4" stroke-miterlimit="10"/>
<path d="M769.55 136.42C767.57 135.99 765.66 135.53 763.84 135.06L760.02 122.46L755.49 107.55L740.82 59.2196L749.53 55.5996L761.62 104.39L764.21 114.87L769.55 136.42Z" stroke="#FFC5DB" stroke-width="4" stroke-miterlimit="10"/>
<path d="M747.72 130.531C747.81 130.321 747.89 130.111 747.97 129.911C749.79 125.421 750.59 124.211 751.72 123.531C753.79 122.311 755.96 124.961 758.72 123.531C759.24 123.261 759.67 122.891 760.02 122.461" stroke="#FFC5DB" stroke-width="4" stroke-miterlimit="10"/>
<path d="M841.72 130.53C841.68 130.32 841.65 130.12 841.61 129.91C841.05 126.36 840.59 122.72 837.72 121.53C834.91 120.38 834.07 121.58 830.72 120.53C826.11 119.09 827.77 114 823.72 112.53C818.81 110.75 815.72 115.11 810.72 113.53C806.87 112.32 806.86 108.22 803.72 107.53C800.82 106.9 798.61 110.62 793.72 111.53C790.94 112.05 789.09 110.58 787.11 109.5" stroke="#FFC5DB" stroke-width="4" stroke-miterlimit="10"/>
<path d="M764.21 114.87C764.37 114.75 764.54 114.64 764.72 114.53C767.94 112.65 770.7 117.13 774.72 115.53C778.61 113.99 778.74 110.61 781.08 109.15" stroke="#FFC5DB" stroke-width="4" stroke-miterlimit="10"/>
<path d="M817.72 126.54C816.69 124.15 808.74 123.65 805.72 127.54C805.62 127.67 803.91 129.93 804.72 131.54C805.83 133.75 811.28 134.01 814.72 131.54C816.27 130.42 818.38 128.06 817.72 126.54Z" stroke="#FFC5DB" stroke-width="4" stroke-miterlimit="10"/>
<path d="M798.72 117.541C796.77 116.931 793.24 120.631 792.72 124.541C792.43 126.751 792.97 130.021 794.72 130.541C796.49 131.071 798.75 128.561 799.72 126.541C801.39 123.071 800.64 118.141 798.72 117.541Z" stroke="#FFC5DB" stroke-width="4" stroke-miterlimit="10"/>
<path d="M153.77 172.619C145.53 172.619 138.54 171.619 132.62 169.899C97.7504 159.829 99.8404 125.119 99.8404 125.119C99.8404 125.119 102.37 126.459 106.83 128.249C115.98 131.959 133.25 137.619 153.29 137.619C162.51 137.619 171.24 136.419 178.89 134.769C180.87 134.339 182.78 133.879 184.6 133.409C191.06 131.719 196.5 129.819 200.47 128.259C205.06 126.459 207.7 125.119 207.7 125.119C207.7 125.119 210.56 172.619 153.77 172.619Z" stroke="#FFC5DB" stroke-width="4" stroke-miterlimit="10"/>
<path d="M99.8398 123.619C102.5 120.229 105.57 96.6191 152.34 96.6191C155.47 96.6191 158.43 96.7291 161.22 96.9391" stroke="#FFC5DB" stroke-width="4" stroke-miterlimit="10"/>
<path d="M207.71 122.64C207.71 122.64 207.71 122.63 207.71 122.62C207.53 121.9 204.76 113.07 192.96 105.9" stroke="#FFC5DB" stroke-width="4" stroke-miterlimit="10"/>
<path d="M167.78 97.6191C175.49 98.6891 181.75 100.519 186.82 102.749" stroke="#FFC5DB" stroke-width="4" stroke-miterlimit="10"/>
<path d="M207.72 122.669C207.72 122.669 207.72 122.659 207.71 122.639C207.71 122.639 207.71 122.632 207.71 122.619" stroke="#FFC5DB" stroke-width="4" stroke-miterlimit="10"/>
<path d="M180.89 169.631C182.82 174.151 181.99 176.931 180.89 178.611C174.29 188.701 138.94 188.181 132.73 177.861C131.68 176.121 131.12 173.521 132.73 169.631" stroke="#FFC5DB" stroke-width="4" stroke-miterlimit="10"/>
<path d="M170.06 44.0409L167.78 97.6209L167.36 107.501L166.43 129.311L161.52 128.791L161.33 107.861L161.22 96.9409L160.72 42.7109L170.06 44.0409Z" stroke="#FFC5DB" stroke-width="4" stroke-miterlimit="10"/>
<path d="M207.62 57.5692L192.95 105.899L188.42 120.819L184.6 133.409C182.78 133.879 180.87 134.339 178.89 134.769L184.22 113.229L186.82 102.749L198.91 53.9492L207.62 57.5692Z" stroke="#FFC5DB" stroke-width="4" stroke-miterlimit="10"/>
<path d="M167.36 107.5C169.7 108.97 169.83 112.35 173.72 113.89C177.74 115.48 180.5 111.01 183.72 112.89C183.9 112.99 184.06 113.11 184.22 113.23" stroke="#FFC5DB" stroke-width="4" stroke-miterlimit="10"/>
<path d="M188.42 120.82C188.77 121.25 189.2 121.62 189.72 121.89C192.48 123.32 194.65 120.66 196.72 121.89C197.85 122.56 198.65 123.78 200.47 128.26C200.55 128.46 200.63 128.67 200.72 128.89" stroke="#FFC5DB" stroke-width="4" stroke-miterlimit="10"/>
<path d="M106.72 128.89C106.76 128.68 106.79 128.46 106.83 128.25C107.4 124.71 107.85 121.07 110.72 119.89C113.53 118.73 114.37 119.94 117.72 118.89C122.33 117.44 120.67 112.36 124.72 110.89C129.63 109.1 132.72 113.46 137.72 111.89C141.57 110.68 141.58 106.57 144.72 105.89C147.62 105.26 149.83 108.98 154.72 109.89C157.5 110.41 159.35 108.94 161.33 107.86" stroke="#FFC5DB" stroke-width="4" stroke-miterlimit="10"/>
<path d="M130.72 124.89C131.75 122.5 139.7 122 142.72 125.89C142.82 126.02 144.53 128.28 143.72 129.89C142.61 132.1 137.16 132.36 133.72 129.89C132.17 128.77 130.06 126.41 130.72 124.89Z" stroke="#FFC5DB" stroke-width="4" stroke-miterlimit="10"/>
<path d="M149.72 115.891C151.67 115.281 155.2 118.981 155.72 122.891C156.01 125.101 155.47 128.371 153.72 128.891C151.95 129.421 149.69 126.911 148.72 124.891C147.05 121.421 147.8 116.491 149.72 115.891Z" stroke="#FFC5DB" stroke-width="4" stroke-miterlimit="10"/>
<path d="M433.02 80.5801C433.02 80.5801 430.02 128.08 489.52 128.08C549.02 128.08 546.02 80.5801 546.02 80.5801C546.02 80.5801 520.22 93.0801 489.02 93.0801C457.82 93.0801 433.02 80.5801 433.02 80.5801Z" stroke="#FFC5DB" stroke-width="4" stroke-miterlimit="10"/>
<path d="M433.03 79.0794C434.88 76.8194 436.93 65.6094 452.54 58.3594" stroke="#FFC5DB" stroke-width="4" stroke-miterlimit="10"/>
<path d="M499.15 52.5293C539.02 55.9193 545.83 77.2193 546.04 78.0993" stroke="#FFC5DB" stroke-width="4" stroke-miterlimit="10"/>
<path d="M464.15 54.4707C463.47 54.6307 462.8 54.7907 462.15 54.9607" stroke="#FFC5DB" stroke-width="4" stroke-miterlimit="10"/>
<path d="M546.05 78.1301C546.05 78.1301 546.05 78.1201 546.04 78.1001C546.04 78.0901 546.03 78.0901 546.03 78.0801" stroke="#FFC5DB" stroke-width="4" stroke-miterlimit="10"/>
<path d="M514.02 125.08C516.03 131.12 515.16 134.84 514.02 137.08C507.17 150.56 470.46 149.86 464.02 136.08C462.93 133.75 462.34 130.28 464.02 125.08" stroke="#FFC5DB" stroke-width="4" stroke-miterlimit="10"/>
<path d="M458.02 88.0799C462.47 78.0199 472.24 71.3799 483.02 71.0799C494.72 70.7499 505.57 78.9499 510.02 90.0799" stroke="#FFC5DB" stroke-width="4" stroke-miterlimit="10"/>
<path d="M525.03 80.0795C524.18 76.9395 522.55 74.1595 520.38 71.9595C517.87 69.4095 514.61 67.6595 511.03 67.0795C508.43 66.6595 505.96 67.0195 503.78 67.7295" stroke="#FFC5DB" stroke-width="4" stroke-miterlimit="10"/>
<path d="M532.02 87.0809C531.76 86.4909 529.01 80.5109 520.02 79.0809C511.44 77.7209 505.57 83.5209 505.02 84.0809" stroke="#FFC5DB" stroke-width="4" stroke-miterlimit="10"/>
<path d="M438.02 81.0797C438.68 79.7897 443.04 70.7397 453.02 69.0797C459.02 68.0797 465.02 68.0797 473.02 74.0797" stroke="#FFC5DB" stroke-width="4" stroke-miterlimit="10"/>
<path d="M466.02 90.0798C466.37 89.4898 472.03 79.3498 483.02 79.0798C490.35 78.8998 498.02 83.0798 502.02 92.0798" stroke="#FFC5DB" stroke-width="4" stroke-miterlimit="10"/>
<path d="M476.02 92.0801C476.32 91.6801 479.02 87.0801 485.02 87.0801C487.02 87.0801 492.02 88.0801 493.02 93.0801" stroke="#FFC5DB" stroke-width="4" stroke-miterlimit="10"/>
<path d="M502.02 78.0791C503.26 75.9691 506.02 73.0791 510.02 74.0791C512.24 74.6291 514.23 75.9091 515.02 78.0791" stroke="#FFC5DB" stroke-width="4" stroke-miterlimit="10"/>
<path d="M446.02 84.0792C446.31 83.4192 448.53 78.5992 454.02 77.0792C458.51 75.8392 463.18 77.6392 464.02 78.0792" stroke="#FFC5DB" stroke-width="4" stroke-miterlimit="10"/>
<path d="M540.02 81.0809C539.25 79.5809 536.93 75.5609 532.02 73.0809C525.52 69.8009 521.31 71.6609 520.02 72.0809" stroke="#FFC5DB" stroke-width="4" stroke-miterlimit="10"/>
<path d="M503.78 67.7305C503.77 67.9805 503.75 68.2205 503.72 68.4605" stroke="#FFC5DB" stroke-width="4" stroke-miterlimit="10"/>
<path d="M461.22 61.1992C460.4 63.8892 460.03 66.3492 460.03 68.0792" stroke="#FFC5DB" stroke-width="4" stroke-miterlimit="10"/>
<path d="M503.78 67.7303C498.91 69.3103 495.46 72.6503 495.03 73.0803C495.03 64.0803 492.99 54.8903 484.03 54.0803C483.48 54.0303 482.94 54.0003 482.43 54.0003C479.61 54.0003 477.38 54.7103 475.58 55.9503C474.39 56.7503 473.4 57.7803 472.55 58.9803L463.56 55.5103C463.75 55.1603 463.95 54.8103 464.15 54.4703C464.97 53.0703 465.92 51.7203 467.02 50.4803C468.4 48.9303 470.01 47.5503 471.86 46.4503H471.87C475.12 44.5503 479.13 43.5403 484.03 44.0803C490.98 44.8503 495.94 48.2303 499.15 52.5303C502.67 57.2303 504.11 63.0303 503.78 67.7303Z" stroke="#FFC5DB" stroke-width="4" stroke-miterlimit="10"/>
<path d="M469.98 64.0703C469.18 66.2503 468.58 68.6003 468.06 70.9603L468.03 71.0803" stroke="#FFC5DB" stroke-width="4" stroke-miterlimit="10"/>
<path d="M485.89 64.1202L483.83 68.6002L469.98 64.0702L461.22 61.2002L452.54 58.3602L402.01 41.8302L406.26 33.4102L462.15 54.9602L463.56 55.5102L472.55 58.9802L485.89 64.1202Z" stroke="#FFC5DB" stroke-width="4" stroke-miterlimit="10"/>
<path d="M419.73 9.2207L471.86 46.4507C470.01 47.5507 468.4 48.9307 467.02 50.4807L413.51 16.3107L419.73 9.2207Z" stroke="#FFC5DB" stroke-width="4" stroke-miterlimit="10"/>
<path d="M489.18 58.82L486.07 62.65L475.58 55.95C477.38 54.71 479.61 54 482.43 54L489.18 58.82Z" stroke="#FFC5DB" stroke-width="4" stroke-miterlimit="10"/>
<path d="M894.5 40.6006C889.12 50.0206 895.8 59.6606 901.76 64.7106C920.38 80.4906 965.86 82.9506 967.95 77.5106C970.76 70.2206 947.44 41.5006 921.56 32.8306C911.73 29.5406 900.08 30.8306 894.49 40.6106L894.5 40.6006Z" stroke="#FFC5DB" stroke-width="4" stroke-miterlimit="10"/>
<path d="M911.69 51.8105L904.83 68.2405" stroke="#FFC5DB" stroke-width="4" stroke-miterlimit="10"/>
<path d="M944.281 43.5898L937.23 58.5098" stroke="#FFC5DB" stroke-width="4" stroke-miterlimit="10"/>
<path d="M891.94 49.1706C870.15 63.5706 856.79 58.8706 854.68 56.7006C851.83 53.7706 863.09 44.9906 861.14 41.3606C859.64 38.5806 847.01 30.7206 851.96 23.6806C856.84 16.7406 870.21 24.8606 875.13 22.6806C878.9 21.0106 869.44 3.37056 876.61 2.12056C885.48 0.570556 895.3 16.1106 899.38 33.6706" stroke="#FFC5DB" stroke-width="4" stroke-miterlimit="10"/>
<path d="M616.15 185.691L582.87 164.481C582.87 164.481 594.62 148.531 592.03 141.201C590.91 138.021 584.78 130.361 590.64 122.011C593.56 117.861 601.7 119.231 605.14 116.381C610.3 112.101 609.55 97.9909 614.81 94.4109C622.61 89.1009 623.83 101.601 633.11 102.471C636.26 102.761 645.8 88.3909 653.18 91.6409C664.16 96.4809 652.85 112.251 654.79 115.291C659.71 123.001 668.81 118.191 667.53 128.551C666.25 138.911 651.02 138.761 649.11 145.571C646.98 153.181 660.31 154.871 653.65 165.051C650.72 169.521 635.49 169.071 632.45 171.011C623.6 176.661 616.15 185.691 616.15 185.691Z" stroke="#FFC5DB" stroke-width="4" stroke-miterlimit="10"/>
<path d="M633.54 123.42L603.19 167.96" stroke="#FFC5DB" stroke-width="4" stroke-miterlimit="10"/>
<path d="M617.96 122.02L623.2 138.59L641.97 136.96" stroke="#FFC5DB" stroke-width="4" stroke-miterlimit="10"/>
<path d="M606.53 135.561L615.74 149.551L630.76 154.971" stroke="#FFC5DB" stroke-width="4" stroke-miterlimit="10"/>
<path d="M296.85 50.4902L293.85 66.4902L268.85 60.4902L271.85 43.4902" stroke="#FFC5DB" stroke-width="4" stroke-miterlimit="10"/>
<path d="M277.85 33.489C278.32 33.739 281.85 36.489 280.85 40.489C280.03 43.779 274.47 45.119 269.85 44.489C264.3 43.729 259.45 39.619 258.85 34.489C257.83 25.819 269.03 17.449 278.85 15.489C291.53 12.959 302.37 20.219 304.85 22.489C307.18 24.629 315.9 34.539 312.85 43.489C311.24 48.219 306.34 52.149 300.85 52.489C295.26 52.829 290.02 49.509 289.85 44.489C289.7 39.889 295.57 37.639 295.85 37.489" stroke="#FFC5DB" stroke-width="4" stroke-miterlimit="10"/>
<path d="M1174.48 168.35L1171.48 184.35L1146.48 178.35L1149.48 161.35" stroke="#FFC5DB" stroke-width="4" stroke-miterlimit="10"/>
<path d="M1155.48 151.35C1155.95 151.6 1159.48 154.35 1158.48 158.35C1157.66 161.64 1152.1 162.98 1147.48 162.35C1141.93 161.59 1137.08 157.48 1136.48 152.35C1135.46 143.68 1146.66 135.31 1156.48 133.35C1169.16 130.82 1180 138.08 1182.48 140.35C1184.81 142.49 1193.53 152.4 1190.48 161.35C1188.87 166.08 1183.97 170.01 1178.48 170.35C1172.89 170.69 1167.65 167.37 1167.48 162.35C1167.33 157.75 1173.2 155.5 1173.48 155.35" stroke="#FFC5DB" stroke-width="4" stroke-miterlimit="10"/>
<path d="M1217.21 111.721L1256.21 105.721C1256.21 105.721 1251.88 86.3807 1257.21 80.7207C1259.52 78.2707 1268.21 73.7207 1266.21 63.7207C1265.21 58.7407 1257.21 56.7207 1255.21 52.7207C1252.21 46.7207 1258.58 34.1207 1255.21 28.7207C1250.21 20.7207 1244.06 31.6707 1235.21 28.7207C1232.21 27.7207 1229.27 10.7207 1221.21 10.7207C1209.21 10.7207 1213.21 29.7207 1210.21 31.7207C1202.6 36.7907 1196.21 28.7207 1193.21 38.7207C1190.21 48.7207 1204.21 54.7207 1203.21 61.7207C1202.09 69.5507 1189.21 65.7207 1191.21 77.7207C1192.09 82.9907 1206.21 88.7207 1208.21 91.7207C1214.03 100.451 1217.21 111.721 1217.21 111.721Z" stroke="#FFC5DB" stroke-width="4" stroke-miterlimit="10"/>
<path d="M1226.39 47.7207L1236.21 100.721" stroke="#FFC5DB" stroke-width="4" stroke-miterlimit="10"/>
<path d="M1241.21 52.7207L1229.74 65.7807L1213.21 56.7207" stroke="#FFC5DB" stroke-width="4" stroke-miterlimit="10"/>
<path d="M1246.21 69.7207L1232.15 78.8107L1216.21 77.7207" stroke="#FFC5DB" stroke-width="4" stroke-miterlimit="10"/>
<path d="M1528.21 121.72C1535.13 130.07 1530.21 140.72 1525.21 146.72C1509.58 165.47 1465.21 175.72 1462.21 170.72C1458.19 164.02 1476.21 131.72 1500.21 118.72C1509.32 113.78 1521.03 113.05 1528.21 121.72Z" stroke="#FFC5DB" stroke-width="4" stroke-miterlimit="10"/>
<path d="M1513.21 135.721L1522.79 150.721" stroke="#FFC5DB" stroke-width="4" stroke-miterlimit="10"/>
<path d="M1479.7 133.23L1489.21 146.72" stroke="#FFC5DB" stroke-width="4" stroke-miterlimit="10"/>
<path d="M1532.21 129.721C1556.16 140.151 1568.51 133.221 1570.21 130.721C1572.51 127.351 1559.91 120.631 1561.21 116.721C1562.21 113.721 1573.29 103.801 1567.21 97.7207C1561.21 91.7207 1549.43 102.031 1544.21 100.721C1540.21 99.7207 1546.49 80.7207 1539.21 80.7207C1530.21 80.7207 1523.21 97.7207 1522.21 115.721" stroke="#FFC5DB" stroke-width="4" stroke-miterlimit="10"/>
<path d="M1342.77 169.811C1334.53 169.811 1327.54 168.811 1321.62 167.091C1286.75 157.021 1288.84 122.311 1288.84 122.311C1288.84 122.311 1291.37 123.651 1295.83 125.451C1304.98 129.151 1322.25 134.811 1342.29 134.811C1351.51 134.811 1360.24 133.611 1367.89 131.961C1369.87 131.531 1371.78 131.071 1373.6 130.601C1380.06 128.911 1385.5 127.011 1389.47 125.451C1394.06 123.651 1396.7 122.311 1396.7 122.311C1396.7 122.311 1399.56 169.811 1342.77 169.811Z" stroke="#FFC5DB" stroke-width="4" stroke-miterlimit="10"/>
<path d="M1288.84 120.811C1291.5 117.411 1294.57 93.8105 1341.34 93.8105C1344.47 93.8105 1347.43 93.9205 1350.22 94.1305" stroke="#FFC5DB" stroke-width="4" stroke-miterlimit="10"/>
<path d="M1396.71 119.83C1396.71 119.83 1396.7 119.82 1396.7 119.81C1396.52 119.08 1393.75 110.26 1381.95 103.09" stroke="#FFC5DB" stroke-width="4" stroke-miterlimit="10"/>
<path d="M1356.78 94.8105C1364.49 95.8705 1370.75 97.7105 1375.82 99.9305" stroke="#FFC5DB" stroke-width="4" stroke-miterlimit="10"/>
<path d="M1396.72 119.861C1396.72 119.861 1396.72 119.851 1396.71 119.831C1396.71 119.831 1396.71 119.824 1396.7 119.811" stroke="#FFC5DB" stroke-width="4" stroke-miterlimit="10"/>
<path d="M1369.89 166.811C1371.82 171.331 1370.99 174.111 1369.89 175.791C1363.29 185.881 1327.94 185.361 1321.73 175.041C1320.68 173.301 1320.12 170.701 1321.73 166.811" stroke="#FFC5DB" stroke-width="4" stroke-miterlimit="10"/>
<path d="M1396.62 54.7606L1381.95 103.091L1377.42 118.001L1373.6 130.601C1371.78 131.071 1369.87 131.531 1367.89 131.961L1373.23 110.411L1375.82 99.9306L1387.91 51.1406L1396.62 54.7606Z" stroke="#FFC5DB" stroke-width="4" stroke-miterlimit="10"/>
<path d="M1359.06 41.2306L1356.78 94.8106L1356.36 104.691L1355.43 126.501L1350.52 125.981L1350.33 105.041L1350.22 94.1306L1349.72 39.8906L1359.06 41.2306Z" stroke="#FFC5DB" stroke-width="4" stroke-miterlimit="10"/>
<path d="M1356.36 104.689C1358.7 106.149 1358.83 109.529 1362.72 111.069C1366.74 112.669 1369.5 108.189 1372.72 110.069C1372.9 110.179 1373.07 110.289 1373.23 110.409" stroke="#FFC5DB" stroke-width="4" stroke-miterlimit="10"/>
<path d="M1377.42 118C1377.77 118.43 1378.2 118.8 1378.72 119.07C1381.48 120.5 1383.65 117.85 1385.72 119.07C1386.85 119.75 1387.65 120.96 1389.47 125.45C1389.55 125.65 1389.63 125.86 1389.72 126.07" stroke="#FFC5DB" stroke-width="4" stroke-miterlimit="10"/>
<path d="M1295.72 126.069C1295.76 125.859 1295.79 125.659 1295.83 125.449C1296.39 121.899 1296.85 118.259 1299.72 117.069C1302.53 115.919 1303.37 117.119 1306.72 116.069C1311.33 114.629 1309.67 109.539 1313.72 108.069C1318.63 106.289 1321.72 110.649 1326.72 109.069C1330.57 107.859 1330.58 103.759 1333.72 103.069C1336.62 102.439 1338.83 106.159 1343.72 107.069C1346.5 107.589 1348.35 106.119 1350.33 105.039" stroke="#FFC5DB" stroke-width="4" stroke-miterlimit="10"/>
<path d="M1319.72 122.079C1320.75 119.689 1328.7 119.189 1331.72 123.079C1331.82 123.209 1333.53 125.469 1332.72 127.079C1331.61 129.289 1326.16 129.549 1322.72 127.079C1321.17 125.959 1319.06 123.599 1319.72 122.079Z" stroke="#FFC5DB" stroke-width="4" stroke-miterlimit="10"/>
<path d="M1338.72 113.08C1340.67 112.47 1344.2 116.17 1344.72 120.08C1345.01 122.29 1344.47 125.56 1342.72 126.08C1340.95 126.61 1338.69 124.1 1337.72 122.08C1336.05 118.61 1336.8 113.68 1338.72 113.08Z" stroke="#FFC5DB" stroke-width="4" stroke-miterlimit="10"/>
<path d="M1622.02 77.7598C1622.02 77.7598 1619.02 125.26 1678.52 125.26C1738.02 125.26 1735.02 77.7598 1735.02 77.7598C1735.02 77.7598 1709.22 90.2598 1678.02 90.2598C1646.82 90.2598 1622.02 77.7598 1622.02 77.7598Z" stroke="#FFC5DB" stroke-width="4" stroke-miterlimit="10"/>
<path d="M1622.03 76.2608C1623.88 74.0008 1625.92 62.8008 1641.53 55.5508" stroke="#FFC5DB" stroke-width="4" stroke-miterlimit="10"/>
<path d="M1688.22 49.7207C1728.03 53.1307 1734.83 74.4007 1735.04 75.2807" stroke="#FFC5DB" stroke-width="4" stroke-miterlimit="10"/>
<path d="M1653.15 51.6504C1652.46 51.8104 1651.79 51.9804 1651.13 52.1504" stroke="#FFC5DB" stroke-width="4" stroke-miterlimit="10"/>
<path d="M1735.05 75.3098C1735.05 75.3098 1735.05 75.2998 1735.04 75.2798C1735.04 75.2698 1735.03 75.2698 1735.03 75.2598" stroke="#FFC5DB" stroke-width="4" stroke-miterlimit="10"/>
<path d="M1703.02 122.26C1705.03 128.3 1704.16 132.02 1703.02 134.26C1696.17 147.74 1659.46 147.04 1653.02 133.26C1651.93 130.93 1651.34 127.46 1653.02 122.26" stroke="#FFC5DB" stroke-width="4" stroke-miterlimit="10"/>
<path d="M1647.02 85.2596C1651.47 75.1996 1661.24 68.5596 1672.02 68.2596C1683.72 67.9296 1694.57 76.1296 1699.02 87.2596" stroke="#FFC5DB" stroke-width="4" stroke-miterlimit="10"/>
<path d="M1714.03 77.2609C1713.18 74.1109 1711.55 71.3309 1709.38 69.1409C1706.86 66.5909 1703.61 64.8409 1700.03 64.2609C1697.42 63.8409 1694.94 64.2009 1692.76 64.9209" stroke="#FFC5DB" stroke-width="4" stroke-miterlimit="10"/>
<path d="M1721.02 84.2606C1720.76 83.6706 1718.01 77.6906 1709.02 76.2606C1700.44 74.9006 1694.57 80.7006 1694.02 81.2606" stroke="#FFC5DB" stroke-width="4" stroke-miterlimit="10"/>
<path d="M1627.02 78.2594C1627.68 76.9694 1632.04 67.9194 1642.02 66.2594C1648.02 65.2594 1654.02 65.2594 1662.02 71.2594" stroke="#FFC5DB" stroke-width="4" stroke-miterlimit="10"/>
<path d="M1655.02 87.2595C1655.37 86.6695 1661.03 76.5295 1672.02 76.2595C1679.35 76.0795 1687.02 80.2595 1691.02 89.2595" stroke="#FFC5DB" stroke-width="4" stroke-miterlimit="10"/>
<path d="M1665.02 89.2598C1665.32 88.8598 1668.02 84.2598 1674.02 84.2598C1676.02 84.2598 1681.02 85.2598 1682.02 90.2598" stroke="#FFC5DB" stroke-width="4" stroke-miterlimit="10"/>
<path d="M1691.02 75.2607C1692.26 73.1507 1695.02 70.2607 1699.02 71.2607C1701.24 71.8107 1703.23 73.0907 1704.02 75.2607" stroke="#FFC5DB" stroke-width="4" stroke-miterlimit="10"/>
<path d="M1635.02 81.2608C1635.31 80.6008 1637.53 75.7808 1643.02 74.2608C1647.51 73.0208 1652.18 74.8208 1653.02 75.2608" stroke="#FFC5DB" stroke-width="4" stroke-miterlimit="10"/>
<path d="M1729.02 78.2606C1728.25 76.7606 1725.93 72.7406 1721.02 70.2606C1714.52 66.9806 1710.31 68.8406 1709.02 69.2606" stroke="#FFC5DB" stroke-width="4" stroke-miterlimit="10"/>
<path d="M1692.76 64.9199C1692.76 65.0999 1692.74 65.2799 1692.72 65.4599" stroke="#FFC5DB" stroke-width="4" stroke-miterlimit="10"/>
<path d="M1650.21 58.3906C1649.39 61.0806 1649.03 63.5306 1649.03 65.2606" stroke="#FFC5DB" stroke-width="4" stroke-miterlimit="10"/>
<path d="M1692.76 64.9197C1687.9 66.4997 1684.45 69.8397 1684.03 70.2597C1684.03 61.2597 1681.99 52.0797 1673.03 51.2597C1672.48 51.2097 1671.93 51.1797 1671.42 51.1797C1668.61 51.1797 1666.38 51.8997 1664.58 53.1297C1663.39 53.9297 1662.4 54.9597 1661.55 56.1597L1652.56 52.6997C1652.75 52.3397 1652.95 51.9897 1653.15 51.6497C1653.97 50.2497 1654.92 48.8997 1656.02 47.6597C1657.4 46.1097 1659.01 44.7297 1660.86 43.6397C1664.11 41.7297 1668.12 40.7097 1673.03 41.2597C1680.03 42.0397 1685.01 45.4197 1688.22 49.7197C1691.74 54.4197 1693.15 60.2197 1692.76 64.9197Z" stroke="#FFC5DB" stroke-width="4" stroke-miterlimit="10"/>
<path d="M1658.97 61.2598C1658.18 63.4298 1657.58 65.7898 1657.06 68.1398L1657.03 68.2598" stroke="#FFC5DB" stroke-width="4" stroke-miterlimit="10"/>
<path d="M1674.89 61.3096L1672.83 65.7896L1658.97 61.2596L1650.21 58.3896L1641.53 55.5496L1591.01 39.0196L1595.26 30.5996L1651.13 52.1496L1652.56 52.6996L1661.55 56.1596L1674.89 61.3096Z" stroke="#FFC5DB" stroke-width="4" stroke-miterlimit="10"/>
<path d="M1608.73 6.40039L1660.86 43.6404C1659.01 44.7304 1657.4 46.1104 1656.02 47.6604L1602.51 13.4904L1608.73 6.40039Z" stroke="#FFC5DB" stroke-width="4" stroke-miterlimit="10"/>
<path d="M1678.18 56.0097L1675.07 59.8297L1664.58 53.1297C1666.38 51.8997 1668.61 51.1797 1671.42 51.1797L1678.18 56.0097Z" stroke="#FFC5DB" stroke-width="4" stroke-miterlimit="10"/>
<path d="M1805.15 182.871L1771.87 161.661C1771.87 161.661 1783.62 145.711 1781.03 138.381C1779.91 135.201 1773.78 127.541 1779.64 119.191C1782.56 115.041 1790.7 116.411 1794.14 113.561C1799.3 109.281 1798.55 95.1706 1803.81 91.5906C1811.61 86.2806 1812.83 98.7806 1822.11 99.6506C1825.26 99.9406 1834.8 85.5706 1842.18 88.8206C1853.16 93.6606 1841.85 109.431 1843.79 112.471C1848.71 120.181 1857.81 115.371 1856.53 125.731C1855.25 136.091 1840.02 135.941 1838.11 142.751C1835.98 150.361 1849.31 152.051 1842.65 162.231C1839.72 166.701 1824.49 166.251 1821.45 168.191C1812.6 173.841 1805.15 182.871 1805.15 182.871Z" stroke="#FFC5DB" stroke-width="4" stroke-miterlimit="10"/>
<path d="M1822.54 120.6L1792.19 165.15" stroke="#FFC5DB" stroke-width="4" stroke-miterlimit="10"/>
<path d="M1806.96 119.199L1812.2 135.779L1830.97 134.149" stroke="#FFC5DB" stroke-width="4" stroke-miterlimit="10"/>
<path d="M1795.53 132.75L1804.74 146.73L1819.76 152.16" stroke="#FFC5DB" stroke-width="4" stroke-miterlimit="10"/>
<path d="M1485.85 47.6797L1482.85 63.6797L1457.85 57.6797L1460.85 40.6797" stroke="#FFC5DB" stroke-width="4" stroke-miterlimit="10"/>
<path d="M1466.85 30.6804C1467.32 30.9304 1470.85 33.6804 1469.85 37.6804C1469.03 40.9704 1463.47 42.3104 1458.85 41.6804C1453.3 40.9204 1448.45 36.8104 1447.85 31.6804C1446.83 23.0104 1458.03 14.6404 1467.85 12.6804C1480.53 10.1504 1491.37 17.4104 1493.85 19.6804C1496.18 21.8204 1504.9 31.7304 1501.85 40.6804C1500.24 45.4104 1495.34 49.3404 1489.85 49.6804C1484.26 50.0204 1479.02 46.7004 1478.85 41.6804C1478.7 37.0804 1484.57 34.8304 1484.85 34.6804" stroke="#FFC5DB" stroke-width="4" stroke-miterlimit="10"/>
<path d="M1824.47 45.3496L1827.47 61.3496L1852.47 55.3496L1849.47 38.3496" stroke="#FFC5DB" stroke-width="4" stroke-miterlimit="10"/>
<path d="M1843.47 28.3504C1843 28.6004 1839.47 31.3504 1840.47 35.3504C1841.29 38.6404 1846.85 39.9804 1851.47 39.3504C1857.02 38.5904 1861.87 34.4804 1862.47 29.3504C1863.49 20.6804 1852.29 12.3104 1842.47 10.3504C1829.79 7.82037 1818.95 15.0804 1816.47 17.3504C1814.14 19.4904 1805.42 29.4004 1808.47 38.3504C1810.08 43.0804 1814.98 47.0104 1820.47 47.3504C1826.06 47.6904 1831.3 44.3704 1831.47 39.3504C1831.62 34.7504 1825.75 32.5004 1825.47 32.3504" stroke="#FFC5DB" stroke-width="4" stroke-miterlimit="10"/>
</g>
<defs>
<clipPath id="clip0_78_3555">
<rect width="1864.53" height="189.54" fill="white"/>
</clipPath>
</defs>
</svg>
